<svg width="64" height="64" viewBox="0 0 64 64" fill="none" xmlns="http://www.w3.org/2000/svg">
<path d="M40.25 20.375C40.25 20.1687 40.0813 20 39.875 20H21.875C21.6688 20 21.5 20.1687 21.5 20.375V22.625C21.5 22.8313 21.6688 23 21.875 23H39.875C40.0813 23 40.25 22.8313 40.25 22.625V20.375ZM39.875 26.75H21.875C21.6688 26.75 21.5 26.9187 21.5 27.125V29.375C21.5 29.5813 21.6688 29.75 21.875 29.75H39.875C40.0813 29.75 40.25 29.5813 40.25 29.375V27.125C40.25 26.9187 40.0813 26.75 39.875 26.75ZM30.5 33.5H21.875C21.6688 33.5 21.5 33.6687 21.5 33.875V36.125C21.5 36.3313 21.6688 36.5 21.875 36.5H30.5C30.7063 36.5 30.875 36.3313 30.875 36.125V33.875C30.875 33.6687 30.7063 33.5 30.5 33.5ZM28.25 47.9375H17.75V14.9375H44V31.0625C44 31.2688 44.1688 31.4375 44.375 31.4375H47C47.2063 31.4375 47.375 31.2688 47.375 31.0625V13.0625C47.375 12.2328 46.7047 11.5625 45.875 11.5625H15.875C15.0453 11.5625 14.375 12.2328 14.375 13.0625V49.8125C14.375 50.6422 15.0453 51.3125 15.875 51.3125H28.25C28.4563 51.3125 28.625 51.1438 28.625 50.9375V48.3125C28.625 48.1062 28.4563 47.9375 28.25 47.9375ZM44.975 44.45C46.3344 43.2172 47.1875 41.4359 47.1875 39.4531C47.1875 35.7266 44.1641 32.7031 40.4375 32.7031C36.7109 32.7031 33.6875 35.7266 33.6875 39.4531C33.6875 41.4359 34.5406 43.2172 35.9 44.45C33.2281 45.9734 31.3906 48.7953 31.25 52.0484C31.2406 52.2594 31.4141 52.4375 31.625 52.4375H33.8797C34.0766 52.4375 34.2406 52.2828 34.2547 52.0813C34.4375 48.8375 37.1422 46.25 40.4375 46.25C43.7328 46.25 46.4375 48.8375 46.6203 52.0813C46.6297 52.2781 46.7938 52.4375 46.9953 52.4375H49.25C49.4656 52.4375 49.6344 52.2594 49.625 52.0484C49.4891 48.7906 47.6469 45.9734 44.975 44.45ZM40.4375 35.7031C42.5094 35.7031 44.1875 37.3812 44.1875 39.4531C44.1875 41.525 42.5094 43.2031 40.4375 43.2031C38.3656 43.2031 36.6875 41.525 36.6875 39.4531C36.6875 37.3812 38.3656 35.7031 40.4375 35.7031Z" fill="#CA2030"/>
</svg>
