<svg width="64" height="64" viewBox="0 0 64 64" fill="none" xmlns="http://www.w3.org/2000/svg">
<path d="M32.5141 13.45C32.4703 13.5594 32.4375 13.6688 32.4375 13.6906C32.4375 13.7234 32.7875 14.1063 33.2031 14.5547C34.1984 15.6156 34.1984 15.7031 33.1922 16.7422C32.6125 17.3438 32.4266 17.6063 32.4594 17.7922C32.4922 18.0328 32.5687 18.0547 33.5969 18.175C39.0875 18.8203 43.5609 22.4953 45.2781 27.7781C45.4312 28.2484 45.5625 28.7406 45.5625 28.8609C45.5625 29.1672 48.0453 31.6719 48.3516 31.6719C48.4937 31.6719 48.9641 31.2781 49.5984 30.6438L50.6156 29.6156L50.5391 29.0359C50.4187 28.1281 49.8828 26.1266 49.5109 25.1859C47.7062 20.6578 44.5234 17.2016 40.2578 15.1563C38.1141 14.1281 35.8062 13.4938 33.6297 13.3406C32.7 13.275 32.5687 13.2859 32.5141 13.45Z" fill="#CA2030"/>
<path d="M28.4999 13.5703C22.6921 14.6313 17.5624 18.5797 15.0468 23.9391C14.0733 26.0063 13.4062 28.5875 13.3733 30.4141C13.3515 31.3656 13.3624 31.3985 13.603 31.4313C13.7999 31.4641 14.0515 31.2891 14.6202 30.7422C15.3093 30.075 15.4077 30.0094 15.7249 30.075C15.9546 30.1188 16.3483 30.4141 16.8624 30.9172C17.5405 31.5735 17.6937 31.6719 17.8687 31.5735C18.0327 31.486 18.0983 31.2891 18.153 30.775C18.6671 25.9188 21.4343 21.8172 25.6562 19.6406C26.6733 19.1266 28.5218 18.4375 28.9265 18.4375C29.1124 18.4375 31.7812 15.8344 31.7812 15.6485C31.7812 15.4625 29.6593 13.4063 29.4843 13.4172C29.3968 13.4172 28.9483 13.4938 28.4999 13.5703Z" fill="#CA2030"/>
<path d="M30.3591 19.8703C29.9654 19.925 29.1998 20.0891 28.6638 20.2422C24.2013 21.5438 20.8873 25.175 20.0232 29.736C19.7935 30.9719 19.8154 33.225 20.067 34.461C20.4388 36.2328 21.456 38.475 21.9263 38.5406C22.0904 38.5735 22.3638 38.3875 22.867 37.9281C24.6716 36.2328 26.881 35.1063 29.4841 34.5485C30.5998 34.3078 33.4435 34.286 34.4607 34.5047C37.1732 35.0735 39.3388 36.1563 41.1654 37.8516C42.2045 38.825 42.281 38.8031 42.9482 37.4688C45.9123 31.5188 43.6373 24.3328 37.7966 21.1828C35.6529 20.0344 32.8857 19.5422 30.3591 19.8703ZM34.0998 23.7094C35.106 24.2125 35.9263 25.0438 36.4076 26.061C36.7357 26.761 36.7576 26.8703 36.7576 28.0625C36.7576 29.2766 36.7466 29.3531 36.3857 30.086C34.8982 33.1156 30.9607 33.8047 28.5982 31.4313C26.4873 29.3203 26.7935 25.7875 29.2545 24.0922C30.1841 23.4578 30.9279 23.25 32.1748 23.2828C33.192 23.3047 33.3341 23.3375 34.0998 23.7094Z" fill="#CA2030"/>
<path d="M31.2887 24.9891C30.6544 25.1641 30.37 25.3172 29.9106 25.7328C28.6309 26.8813 28.5872 29.025 29.8231 30.2281C30.4903 30.8844 30.9606 31.0703 31.9997 31.0703C32.8309 31.0703 32.995 31.0375 33.509 30.7531C34.559 30.1625 35.095 29.2438 35.1059 28.0078C35.1169 26.3563 33.9247 25.0766 32.2622 24.9453C31.9122 24.9234 31.4747 24.9453 31.2887 24.9891Z" fill="#CA2030"/>
<path d="M14.4016 33.3563C13.5813 34.1984 13.4063 34.4391 13.45 34.6469C13.4828 34.7781 13.5813 35.3141 13.6797 35.8281C14.0735 37.8953 15.1782 40.575 16.3922 42.3906C18.361 45.3547 21.2485 47.7828 24.4203 49.1609C26.3672 50.0031 28.8719 50.6047 30.5672 50.6375C31.7922 50.6484 31.8469 50.5063 30.9282 49.5656C30.1625 48.7891 29.9875 48.4938 30.0969 48.1547C30.1407 48.0234 30.5235 47.5531 30.95 47.1156C31.9453 46.0875 31.9125 46 30.3485 45.8141C25.7 45.2344 21.6969 42.4234 19.5969 38.2563C19.2032 37.4797 18.4375 35.3578 18.4375 35.0516C18.4375 34.8 15.9 32.3281 15.6375 32.3281C15.4953 32.3281 15.036 32.7109 14.4016 33.3563Z" fill="#CA2030"/>
<path d="M45.9562 32.5688C45.9344 32.6453 45.8578 33.2031 45.7812 33.8047C45.5406 35.7734 44.8734 37.6656 43.8344 39.3281C41.9312 42.3359 39.175 44.4141 35.7734 45.3984L34.7891 45.6828L33.5641 46.9078C32.7984 47.6625 32.3281 48.2094 32.3281 48.3516C32.3281 48.6359 34.275 50.5938 34.5594 50.5938C34.6687 50.5938 35.2484 50.4953 35.85 50.375C42.325 49.0516 47.6516 44.3484 49.7187 38.1359C50.2656 36.4844 50.5937 34.8875 50.6266 33.6188C50.6484 32.6234 50.6484 32.6016 50.3859 32.5688C50.1891 32.5359 49.9594 32.6891 49.4344 33.2141C48.8437 33.8047 48.6797 33.9031 48.3516 33.9031C48.0234 33.9031 47.8594 33.7938 47.225 33.1703C46.5141 32.4594 46.0547 32.2406 45.9562 32.5688Z" fill="#CA2030"/>
<path d="M29.8781 36.2109C28.2812 36.5172 26.6953 37.1625 25.3937 38.0484C24.5406 38.6281 23.1406 39.9625 23.1406 40.2031C23.1406 40.4766 24.3328 41.5484 25.4156 42.2594C29.3203 44.8078 34.4062 44.8625 38.4094 42.3906C39.4266 41.7672 40.8594 40.4875 40.8594 40.2031C40.8594 39.9406 39.5359 38.65 38.65 38.0594C37.6 37.3594 36.2 36.7359 34.975 36.4078C33.6187 36.0578 31.2125 35.9594 29.8781 36.2109Z" fill="#CA2030"/>
</svg>
